<?xml version="1.0" standalone="no"?>
<!DOCTYPE svg PUBLIC "-//W3C//DTD SVG 20010904//EN"
 "http://www.w3.org/TR/2001/REC-SVG-20010904/DTD/svg10.dtd">
<svg version="1.0" xmlns="http://www.w3.org/2000/svg"
 width="907.000000pt" height="907.000000pt" viewBox="0 0 907.000000 907.000000"
 preserveAspectRatio="xMidYMid meet">
<metadata>
Created by potrace 1.11, written by Peter Selinger 2001-2013
</metadata>
<g transform="translate(0.000000,907.000000) scale(0.100000,-0.100000)"
fill="#000000" stroke="none">
<path d="M4345 9064 c-480 -28 -838 -95 -1255 -234 -915 -304 -1708 -900
-2278 -1710 -388 -552 -657 -1227 -757 -1904 -38 -256 -49 -403 -49 -681 0
-439 48 -794 161 -1209 284 -1044 964 -1976 1880 -2579 553 -364 1193 -607
1833 -696 258 -36 380 -44 655 -44 525 0 953 69 1445 233 752 250 1428 701
1964 1310 570 648 945 1454 1071 2304 38 256 49 403 49 681 0 278 -11 425 -49
681 -158 1066 -702 2046 -1535 2764 -623 538 -1446 916 -2255 1035 -256 38
-676 61 -880 49z m-2735 -3659 l0 -855 -270 0 -270 0 0 855 0 855 270 0 270 0
0 -855z m1198 313 l2 -258 235 0 235 0 -2 -217 -3 -218 -232 -3 -233 -2 0
-353 c0 -286 3 -363 15 -404 19 -65 65 -106 136 -123 71 -17 214 -8 274 19
l45 20 0 -228 0 -228 -57 -16 c-89 -25 -187 -37 -311 -37 -305 0 -505 91 -598
272 -50 99 -54 138 -54 625 l0 453 -172 2 -173 3 -3 218 -2 217 175 0 175 0 0
260 0 260 273 -2 272 -3 3 -257z m3592 2 l0 -260 240 0 240 0 -2 -217 -3 -218
-238 -3 -239 -2 4 -363 3 -362 27 -56 c21 -41 38 -61 70 -80 39 -22 53 -24
163 -23 89 0 130 5 159 17 21 9 42 17 47 17 5 0 9 -99 9 -220 0 -251 9 -228
-102 -256 -37 -9 -130 -17 -228 -21 -194 -6 -311 13 -426 68 -82 38 -179 131
-213 202 -52 109 -54 121 -58 614 l-5 463 -166 2 -167 3 -3 218 -2 217 170 0
170 0 0 253 c0 140 3 257 7 260 3 4 127 7 275 7 l268 0 0 -260z m-1575 -245
c314 -87 524 -314 601 -650 23 -96 25 -337 6 -430 -75 -348 -275 -601 -546
-692 -75 -25 -93 -27 -246 -28 -129 0 -179 4 -230 18 -104 30 -186 74 -255
139 l-65 60 0 -501 0 -501 -270 0 -270 0 0 1285 0 1285 250 0 250 0 0 -114 0
-115 57 60 c91 95 191 154 334 194 70 20 297 14 384 -10z m3142 10 c180 -29
307 -84 414 -178 l44 -39 -170 -163 -170 -163 -40 38 c-54 52 -129 88 -207 99
-176 25 -301 -67 -243 -178 19 -38 88 -66 265 -108 297 -70 384 -105 481 -193
127 -113 176 -288 135 -481 -45 -209 -226 -364 -496 -424 -103 -23 -379 -31
-489 -15 -183 27 -331 85 -445 175 l-58 47 29 31 c16 18 92 101 167 185 l138
153 57 -54 c75 -72 134 -105 222 -123 117 -25 266 -4 314 43 28 28 33 74 13
118 -16 36 -111 79 -248 110 -313 73 -407 108 -498 190 -104 94 -146 196 -144
360 1 169 55 292 177 403 164 150 457 215 752 167z m-6553 -1140 c22 -4 60
-17 85 -30 153 -78 218 -273 146 -433 -93 -207 -373 -260 -536 -101 -63 61
-91 123 -97 215 -9 139 55 259 169 317 54 28 135 47 174 41 11 -1 38 -6 59 -9z"/>
<path d="M4340 5004 c-73 -20 -127 -53 -179 -109 -149 -162 -145 -476 8 -633
24 -24 72 -58 109 -75 56 -26 80 -31 166 -35 217 -10 361 73 427 245 30 80 37
234 15 323 -39 153 -145 257 -294 289 -72 15 -185 13 -252 -5z"/>
</g>
</svg>
